<svg xmlns="http://www.w3.org/2000/svg" width="480" height="480" viewBox="0 0 480 480" fill="#FFFFFF"><circle cx="39" cy="191" r="1" opacity="0.63"/><circle cx="427.7" cy="80.4" r="0.4" opacity="0.82"/><circle cx="93.3" cy="393.4" r="1.2" opacity="0.96"/><circle cx="251.3" cy="51.5" r="0.7" opacity="1.00"/><circle cx="393.3" cy="89" r="0.6" opacity="0.72"/><circle cx="233.1" cy="216.7" r="0.5" opacity="0.50"/><circle cx="152.7" cy="6.3" r="0.5" opacity="0.31"/><circle cx="254.1" cy="53.8" r="0.8" opacity="0.35"/><circle cx="90.7" cy="56.9" r="0.8" opacity="0.95"/><circle cx="351.8" cy="372.9" r="0.7" opacity="0.94"/><circle cx="117.1" cy="335.6" r="1.1" opacity="0.48"/><circle cx="166.7" cy="449.2" r="0.4" opacity="0.80"/><circle cx="166.6" cy="118.5" r="1.2" opacity="0.74"/><circle cx="80" cy="122.7" r="0.7" opacity="0.83"/><circle cx="147.2" cy="205.9" r="0.7" opacity="0.42"/><circle cx="124.7" cy="390.9" r="1.4" opacity="0.44"/><circle cx="33.9" cy="421.6" r="0.4" opacity="0.90"/><circle cx="408.6" cy="463" r="1.2" opacity="0.91"/><circle cx="74.1" cy="462.9" r="0.8" opacity="0.95"/><circle cx="324.2" cy="115.2" r="0.5" opacity="0.35"/><circle cx="283.9" cy="16" r="0.5" opacity="0.93"/><circle cx="248.6" cy="133.1" r="0.8" opacity="0.51"/><circle cx="201.9" cy="45.9" r="0.6" opacity="0.47"/><circle cx="262.3" cy="233.9" r="0.4" opacity="0.88"/><circle cx="310.4" cy="94.6" r="0.6" opacity="0.45"/><circle cx="161.3" cy="197.1" r="0.5" opacity="0.27"/><circle cx="233.5" cy="28.9" r="0.6" opacity="0.39"/><circle cx="211.5" cy="97.4" r="0.7" opacity="0.61"/><circle cx="383.3" cy="221.6" r="0.8" opacity="0.63"/><circle cx="49.4" cy="40.5" r="0.5" opacity="0.58"/><circle cx="258.5" cy="17.5" r="0.7" opacity="0.76"/><circle cx="175.6" cy="23" r="0.5" opacity="0.86"/><circle cx="52.5" cy="61.6" r="0.5" opacity="0.72"/><circle cx="214.1" cy="39.7" r="0.7" opacity="0.35"/><circle cx="95.3" cy="253.8" r="1.2" opacity="0.63"/><circle cx="278.4" cy="340.1" r="0.7" opacity="0.77"/><circle cx="192.3" cy="211.9" r="0.5" opacity="0.76"/><circle cx="324.7" cy="8.7" r="0.7" opacity="0.63"/><circle cx="326.4" cy="384.1" r="0.5" opacity="0.37"/><circle cx="11.8" cy="61.5" r="0.8" opacity="0.52"/><circle cx="93.1" cy="57.7" r="0.6" opacity="0.62"/><circle cx="48.6" cy="40.8" r="0.6" opacity="0.76"/><circle cx="301" cy="384.6" r="0.7" opacity="0.75"/><circle cx="177.5" cy="407.1" r="0.8" opacity="0.61"/><circle cx="308.5" cy="22.7" r="0.7" opacity="0.98"/><circle cx="225.5" cy="233.4" r="0.5" opacity="0.46"/><circle cx="266" cy="267.4" r="0.6" opacity="0.83"/><circle cx="344.3" cy="243.7" r="0.6" opacity="0.46"/><circle cx="104.1" cy="59.7" r="0.5" opacity="0.97"/><circle cx="88.3" cy="381.4" r="1.4" opacity="0.37"/><circle cx="74.9" cy="203.8" r="0.5" opacity="0.79"/><circle cx="228.5" cy="226.9" r="0.5" opacity="0.61"/><circle cx="166.9" cy="193.9" r="0.5" opacity="0.36"/><circle cx="213.3" cy="78.6" r="1.2" opacity="0.81"/><circle cx="339.3" cy="35.6" r="0.8" opacity="0.44"/><circle cx="1.9" cy="162.6" r="0.6" opacity="0.31"/><circle cx="60.9" cy="105.8" r="0.5" opacity="0.52"/><circle cx="70" cy="149.6" r="0.7" opacity="0.69"/><circle cx="121.4" cy="147.9" r="0.4" opacity="0.37"/><circle cx="380.1" cy="45.9" r="0.5" opacity="0.75"/><circle cx="97.3" cy="12.5" r="0.6" opacity="0.79"/><circle cx="94.1" cy="258.6" r="0.7" opacity="0.67"/><circle cx="238.1" cy="423.6" r="0.8" opacity="0.51"/><circle cx="147.5" cy="329.5" r="0.6" opacity="0.40"/><circle cx="234.1" cy="123.3" r="0.4" opacity="0.27"/><circle cx="269.2" cy="226.4" r="0.6" opacity="0.62"/><circle cx="337.5" cy="392.6" r="0.7" opacity="0.69"/><circle cx="126.9" cy="180.9" r="0.6" opacity="0.37"/><circle cx="343.7" cy="158.5" r="0.7" opacity="0.56"/><circle cx="293.2" cy="29.6" r="0.6" opacity="0.81"/><circle cx="181.9" cy="54" r="0.7" opacity="0.39"/><circle cx="40.1" cy="65.8" r="1.4" opacity="0.44"/><circle cx="238.7" cy="351.3" r="1.1" opacity="0.61"/><circle cx="33.6" cy="420.8" r="0.5" opacity="0.53"/><circle cx="458.7" cy="104.7" r="0.7" opacity="0.43"/><circle cx="281.7" cy="396.6" r="0.7" opacity="0.42"/><circle cx="64.6" cy="215.6" r="0.4" opacity="0.56"/><circle cx="42.3" cy="430.2" r="0.4" opacity="0.32"/><circle cx="459.4" cy="135.5" r="0.7" opacity="0.50"/><circle cx="345.7" cy="53.9" r="0.6" opacity="0.89"/><circle cx="61.8" cy="183.3" r="0.6" opacity="0.29"/><circle cx="159.8" cy="61.9" r="0.6" opacity="0.96"/><circle cx="361.3" cy="256.6" r="0.5" opacity="0.84"/><circle cx="103.6" cy="386.4" r="0.6" opacity="0.98"/><circle cx="21.8" cy="165.5" r="0.7" opacity="0.99"/><circle cx="217.6" cy="138.1" r="1.1" opacity="0.50"/><circle cx="271" cy="64.9" r="0.5" opacity="0.85"/><circle cx="384.5" cy="101.3" r="0.4" opacity="0.70"/><circle cx="9.1" cy="11" r="0.5" opacity="0.70"/><circle cx="399.8" cy="10.7" r="0.6" opacity="0.49"/><circle cx="239.9" cy="14" r="0.4" opacity="0.89"/><circle cx="455" cy="470.9" r="0.4" opacity="0.38"/><circle cx="6.6" cy="231" r="0.6" opacity="0.25"/><circle cx="367.5" cy="402.6" r="0.5" opacity="0.86"/><circle cx="213.6" cy="274.6" r="0.6" opacity="0.81"/><circle cx="55.9" cy="53.6" r="0.8" opacity="0.36"/><circle cx="453.4" cy="357.4" r="0.4" opacity="0.67"/><circle cx="199.9" cy="316.2" r="0.4" opacity="0.85"/><circle cx="336.1" cy="27.5" r="0.5" opacity="0.81"/><circle cx="115.8" cy="232.3" r="0.5" opacity="0.57"/><circle cx="8.4" cy="0.3" r="0.4" opacity="0.64"/><circle cx="329.3" cy="310.9" r="0.4" opacity="0.84"/><circle cx="28.8" cy="300.9" r="1.3" opacity="0.35"/><circle cx="110.3" cy="2.8" r="0.4" opacity="0.33"/><circle cx="124.9" cy="133" r="0.4" opacity="0.75"/><circle cx="414.7" cy="103.3" r="0.6" opacity="0.51"/><circle cx="210.7" cy="359.7" r="0.5" opacity="1.00"/><circle cx="36.3" cy="50.2" r="0.4" opacity="0.26"/><circle cx="477.5" cy="451.6" r="0.4" opacity="0.64"/><circle cx="180.4" cy="144.8" r="0.9" opacity="0.90"/></svg>
